<svg width="640" height="480" xmlns="http://www.w3.org/2000/svg" xmlns:svg="http://www.w3.org/2000/svg">
 <!-- Created with SVG-edit - https://github.com/SVG-Edit/svgedit-->
 <defs>
  <filter height="200%" id="svg_33_blur" width="200%" x="-50%" y="-50%">
   <feGaussianBlur in="SourceGraphic" stdDeviation="10"/>
  </filter>
  <filter height="200%" id="svg_54_blur" width="200%" x="-50%" y="-50%">
   <feGaussianBlur in="SourceGraphic" stdDeviation="6"/>
  </filter>
 </defs>
 <g class="layer">
  <title>Layer 1</title>
  <ellipse cx="285.04" cy="216.58" fill="#000000" fill-opacity="0.02" filter="url(#svg_33_blur)" id="svg_33" rx="97.67" ry="30.23" stroke="#9acee2" stroke-dasharray="null" stroke-linecap="null" stroke-linejoin="null" stroke-width="0" transform="matrix(1, 0, 0, 1, 0, 0)"/>
  <ellipse cx="228.5" cy="203.11" fill="#1e2044" fill-opacity="0.4" filter="url(#svg_33_blur)" id="svg_34" rx="112.33" ry="30.81" stroke="#9acee2" stroke-dasharray="null" stroke-linecap="null" stroke-linejoin="null" stroke-width="0" transform="matrix(1, 0, 0, 1, 0, 0)"/>
  <g id="svg_32">
   <ellipse cx="227.17" cy="199.72" fill="#2c83ba" id="svg_1" rx="98" ry="26" stroke="#000000" stroke-width="0"/>
   <g id="svg_31">
    <ellipse cx="192.81" cy="224.03" fill="#2c83ba" id="svg_4" rx="49" ry="15" stroke="#000000" stroke-linecap="null" stroke-linejoin="null" stroke-width="0"/>
    <ellipse cx="192.67" cy="220.79" fill="#388ec4" id="svg_29" rx="49" ry="15" stroke="#000000" stroke-linecap="null" stroke-linejoin="null" stroke-width="0"/>
   </g>
   <ellipse cx="188.33" cy="183.79" fill="#2c83ba" id="svg_5" rx="49" ry="15" stroke="#000000" stroke-linecap="null" stroke-linejoin="null" stroke-width="0"/>
   <ellipse cx="188.33" cy="183.79" fill="#2c83ba" id="svg_26" rx="49" ry="15" stroke="#000000" stroke-linecap="null" stroke-linejoin="null" stroke-width="0"/>
   <ellipse cx="187.33" cy="181.46" fill="#388ec4" id="svg_28" rx="49" ry="15" stroke="#000000" stroke-linecap="null" stroke-linejoin="null" stroke-width="0"/>
   <ellipse cx="289.33" cy="188.41" fill="#2c83ba" id="svg_25" rx="49" ry="15" stroke="#000000" stroke-linecap="null" stroke-linejoin="null" stroke-width="0"/>
   <ellipse cx="290" cy="185.46" fill="#388ec4" id="svg_27" rx="49" ry="15" stroke="#000000" stroke-linecap="null" stroke-linejoin="null" stroke-width="0" transform="matrix(1, 0, 0, 1, 0, 0)"/>
   <ellipse cx="227.16" cy="196.79" fill="#388ec4" id="svg_24" rx="98" ry="26" stroke="#000000" stroke-width="0" transform="matrix(1, 0, 0, 1, 0, 0)"/>
   <ellipse cx="229.66" cy="198.24" fill="#3da3e2" filter="url(#svg_54_blur)" id="svg_54" rx="84.25" ry="22.35" stroke="#000000" stroke-width="0" transform="matrix(1, 0, 0, 1, 0, 0)"/>
   <ellipse cx="204.98" cy="196.08" fill="#ffffff" fill-opacity="0.2" filter="url(#svg_54_blur)" id="svg_56" rx="63.94" ry="16.96" stroke="#000000" stroke-width="0"/>
   <g id="svg_35">
    <path d="m154.67,182.57c9.69,0 9.69,-4.95 15.46,-4.12c5.77,0.82 1.24,4.12 7.42,3.09c6.18,-1.03 8.24,-5.36 11.75,-5.98c3.5,-0.62 0.66,4.95 11.04,5.53" fill="none" id="svg_23" stroke="#d7e9ef" stroke-dasharray="null" stroke-linecap="null" stroke-linejoin="null" stroke-width="3"/>
    <path d="m227,208.58c12.45,0 12.45,-6.36 19.86,-5.3c7.41,1.06 1.59,5.3 9.53,3.97c7.94,-1.32 10.59,-6.88 15.09,-7.68c4.5,-0.79 0.85,6.36 14.18,7.1" fill="none" id="svg_22" stroke="#d7e9ef" stroke-dasharray="null" stroke-linecap="null" stroke-linejoin="null" stroke-width="3"/>
    <path d="m170.67,222.58c12.45,0 12.45,-6.36 19.86,-5.3c7.41,1.06 1.59,5.3 9.53,3.97c7.94,-1.32 10.59,-6.88 15.09,-7.68c4.5,-0.79 0.85,6.36 14.18,7.1" fill="none" id="svg_21" stroke="#d7e9ef" stroke-dasharray="null" stroke-linecap="null" stroke-linejoin="null" stroke-width="3"/>
    <path d="m262,186.58c12.45,0 12.45,-6.36 19.86,-5.3c7.41,1.06 1.59,5.3 9.53,3.97c7.94,-1.32 10.59,-6.88 15.09,-7.68c4.5,-0.79 0.85,6.36 14.18,7.1" fill="none" id="svg_20" stroke="#d7e9ef" stroke-dasharray="null" stroke-linecap="null" stroke-linejoin="null" stroke-width="3"/>
    <path d="m189,193.77c14.99,0 14.99,-7.65 23.92,-6.38c8.93,1.28 1.91,6.38 11.48,4.78c9.57,-1.59 12.76,-8.29 18.18,-9.25c5.42,-0.96 1.02,7.65 17.08,8.55" fill="none" id="svg_19" stroke="#d7e9ef" stroke-dasharray="null" stroke-linecap="null" stroke-linejoin="null" stroke-width="3" transform="rotate(4.24012, 224.335, 188.307)"/>
    <path d="m149,208.39c9.9,0 9.9,-5.06 15.8,-4.21c5.9,0.84 1.26,4.21 7.58,3.16c6.32,-1.05 8.43,-5.48 12.01,-6.11c3.58,-0.63 0.67,5.06 11.28,5.65" fill="none" id="svg_16" stroke="#d7e9ef" stroke-dasharray="null" stroke-linecap="null" stroke-linejoin="null" stroke-width="3"/>
   </g>
  </g>
 </g>
</svg>