<?xml version="1.0" encoding="UTF-8" standalone="no"?>
<!-- Created with Inkscape (http://www.inkscape.org/) -->

<svg
   width="49.040253mm"
   height="20.234167mm"
   viewBox="0 0 49.040252 20.234167"
   version="1.1"
   id="svg1"
   xmlns="http://www.w3.org/2000/svg"
   xmlns:svg="http://www.w3.org/2000/svg">
  <defs
     id="defs1" />
  <g
     id="g1"
     transform="translate(-83.328516,-59.518138)">
    <path
       d="m 109.94851,68.224156 2.06957,7.333535 8.28437,-2.104522 3.61553,-13.837665 h -5.66023 l -2.38125,10.392764 -3.06652,-10.392764 h -5.58411 l -2.79003,10.328179 -2.5273,-10.328179 h -5.777708 l 4.873628,18.740976 6.65824,-1.691507 z"
       fill="#ffffff"
       id="path1"
       style="stroke-width:0.264583" />
    <path
       d="m 120.53555,79.458867 h -19.47712 l 19.00775,-4.826715 -0.67866,2.589636 z"
       fill="#02cb35"
       id="path2"
       style="stroke-width:0.264583" />
    <path
       d="M 132.36877,64.613519 V 59.61292 h -7.2001 l -1.33033,5.000599 h 1.45098 l -0.006,9.844881 h -1.40917 v 5.000731 h 8.49312 V 74.4584 h -1.41129 l 0.006,-9.844881 z"
       fill="#ffffff"
       id="path3"
       style="stroke-width:0.264583" />
    <path
       d="m 97.004037,74.134894 c -1.092042,0.256091 -2.201148,0.432938 -3.318669,0.529167 -2.691077,0 -4.643173,-2.361406 -4.641585,-5.092965 0.0013,-2.66012 1.003564,-3.915753 2.23176,-4.567687 0.574675,-0.305329 0.933979,-0.366183 1.7399,-0.413279 1.515004,-0.08837 3.10806,0.0016 3.10806,0.0016 L 94.823341,59.6003 c -0.509746,-0.05421 -1.02198,-0.08156 -1.534583,-0.08216 -2.881048,-0.0016 -5.360459,0.948468 -7.170209,2.747643 -1.823511,1.812925 -2.788441,4.316465 -2.790029,7.240376 -0.0034,5.93381 4.180415,10.242709 9.948331,10.246148 2.109523,0 3.033448,-0.306652 5.653352,-0.914664 l 0.877888,-0.209815 z"
       fill="#ffffff"
       id="path4"
       style="stroke-width:0.264583" />
  </g>
</svg>
