<?xml version="1.0" encoding="UTF-8" standalone="no"?>
<!-- Created with Inkscape (http://www.inkscape.org/) -->

<svg
   width="43.511696mm"
   height="35.328175mm"
   viewBox="0 0 43.511696 35.328175"
   version="1.1"
   id="svg1"
   sodipodi:docname="cart.svg"
   inkscape:version="1.3.2 (091e20e, 2023-11-25, custom)"
   xmlns:inkscape="http://www.inkscape.org/namespaces/inkscape"
   xmlns:sodipodi="http://sodipodi.sourceforge.net/DTD/sodipodi-0.dtd"
   xmlns="http://www.w3.org/2000/svg"
   xmlns:svg="http://www.w3.org/2000/svg">
  <sodipodi:namedview
     id="namedview1"
     pagecolor="#ffffff"
     bordercolor="#000000"
     borderopacity="0.25"
     inkscape:showpageshadow="2"
     inkscape:pageopacity="0.0"
     inkscape:pagecheckerboard="0"
     inkscape:deskcolor="#d1d1d1"
     inkscape:document-units="mm"
     inkscape:zoom="6.2862095"
     inkscape:cx="74.925915"
     inkscape:cy="61.324714"
     inkscape:window-width="2560"
     inkscape:window-height="1494"
     inkscape:window-x="-11"
     inkscape:window-y="-11"
     inkscape:window-maximized="1"
     inkscape:current-layer="layer1" />
  <defs
     id="defs1" />
  <g
     inkscape:label="Layer 1"
     inkscape:groupmode="layer"
     id="layer1"
     transform="translate(-25.990521,-63.232317)">
    <path
       d="m 63.940953,67.132708 c -2.857507,1.25e-4 -4.787,0.374456 -4.786941,3.259178 0.0068,0.974131 0.283388,1.926926 0.798401,2.750736 l -2.783293,2.776575 h -6.359818 -14.97273 l -3.008521,0 c -1.88575,-2.38e-4 -3.09207,2.008788 -2.20555,3.673161 l 3.901931,9.45705 1.31214,4.464264 h 14.97273 l 4.407364,-0.476188 5.027719,-11.967984 4.101367,-5.1917 c 2.797146,-0.07459 3.838292,-1.36871 3.846948,-4.193467 5.9e-5,-2.884926 -1.394037,-4.551788 -4.251747,-4.551625 z"
       style="fill:#252025;fill-opacity:1;stroke-width:0.234442;stroke-linecap:round;stroke-linejoin:bevel;paint-order:stroke fill markers"
       id="path9"
       inkscape:export-filename="cart.svg"
       inkscape:export-xdpi="1"
       inkscape:export-ydpi="1"
       sodipodi:nodetypes="cccccccccccccccc" />
    <circle
       style="fill:#d8d9de;stroke:none;stroke-width:0.291892;stroke-linecap:round;stroke-linejoin:bevel;paint-order:stroke fill markers"
       id="path2-0"
       cx="53.774025"
       cy="-93.203918"
       r="5.3565693"
       transform="scale(1,-1)" />
    <circle
       style="fill:#d8d9de;stroke:none;stroke-width:0.291892;stroke-linecap:round;stroke-linejoin:bevel;paint-order:stroke fill markers"
       id="circle9"
       cx="37.001003"
       cy="-93.203918"
       r="5.3565693"
       transform="scale(1,-1)" />
  </g>
</svg>
