<?xml version="1.0" encoding="UTF-8" standalone="no"?>
<!-- Created with Inkscape (http://www.inkscape.org/) -->

<svg
   width="43.511696mm"
   height="35.328175mm"
   viewBox="0 0 43.511696 35.328175"
   version="1.1"
   id="svg1"
   xmlns:inkscape="http://www.inkscape.org/namespaces/inkscape"
   xmlns:sodipodi="http://sodipodi.sourceforge.net/DTD/sodipodi-0.dtd"
   xmlns="http://www.w3.org/2000/svg"
   xmlns:svg="http://www.w3.org/2000/svg">
  <sodipodi:namedview
     id="namedview1"
     pagecolor="#ffffff"
     bordercolor="#000000"
     borderopacity="0.25"
     inkscape:showpageshadow="2"
     inkscape:pageopacity="0.0"
     inkscape:pagecheckerboard="0"
     inkscape:deskcolor="#d1d1d1"
     inkscape:document-units="mm" />
  <defs
     id="defs1" />
  <g
     inkscape:label="Layer 1"
     inkscape:groupmode="layer"
     id="layer1"
     transform="translate(-25.990521,-63.232317)">
    <path
       d="m 64.327856,63.232316 c -2.857507,1.25e-4 -5.173903,2.338732 -5.173844,5.223454 0.0068,0.974131 0.283388,1.926926 0.798401,2.750736 l -2.783293,2.776575 h -6.359818 -14.97273 -7.343738 c -1.88575,-2.38e-4 -3.09207,2.008788 -2.20555,3.673161 l 8.44548,15.85743 h 1.103808 14.97273 1.103808 l 8.331275,-15.642973 4.220414,-4.209562 c 2.797146,-0.07459 5.028763,-2.38061 5.037419,-5.205367 5.9e-5,-2.884926 -2.316652,-5.223617 -5.174362,-5.223454 z"
       style="fill:#252025;fill-opacity:1;stroke-width:0.234442;stroke-linecap:round;stroke-linejoin:bevel;paint-order:stroke fill markers"
       id="path9"
       inkscape:export-filename="cart.svg"
       inkscape:export-xdpi="1"
       inkscape:export-ydpi="1" />
    <circle
       style="fill:#d8d9de;stroke:none;stroke-width:0.291892;stroke-linecap:round;stroke-linejoin:bevel;paint-order:stroke fill markers"
       id="path2-0"
       cx="53.774025"
       cy="-93.203918"
       r="5.3565693"
       transform="scale(1,-1)" />
    <circle
       style="fill:#d8d9de;stroke:none;stroke-width:0.291892;stroke-linecap:round;stroke-linejoin:bevel;paint-order:stroke fill markers"
       id="circle9"
       cx="32.960411"
       cy="-93.203918"
       r="5.3565693"
       transform="scale(1,-1)" />
  </g>
</svg>
